# Blender v2.73 (sub 0) OBJ File: 'torch.blend'
# www.blender.org
mtllib torch.mtl
o Cone
v -0.286113 5.148825 0.811786
v -0.286113 3.148825 -0.188214
v -0.091022 5.148825 0.792571
v 0.096571 5.148825 0.735666
v 0.269457 5.148825 0.643256
v 0.420994 5.148825 0.518893
v 0.545357 5.148825 0.367356
v 0.637767 5.148825 0.194469
v 0.694672 5.148825 0.006876
v 0.713887 5.148825 -0.188214
v 0.694673 5.148825 -0.383304
v 0.637767 5.148825 -0.570897
v 0.545357 5.148825 -0.743784
v 0.420994 5.148825 -0.895321
v 0.269457 5.148825 -1.019684
v 0.096570 5.148825 -1.112094
v -0.091023 5.148825 -1.168999
v -0.286113 5.148825 -1.188214
v -0.481203 5.148825 -1.168999
v -0.668797 5.148825 -1.112093
v -0.841684 5.148825 -1.019683
v -0.993220 5.148825 -0.895320
v -1.117583 5.148825 -0.743784
v -1.209993 5.148825 -0.570897
v -1.266898 5.148825 -0.383303
v -1.286113 5.148825 -0.188213
v -1.266898 5.148825 0.006877
v -1.209992 5.148825 0.194470
v -1.117582 5.148825 0.367357
v -0.993219 5.148825 0.518894
v -0.841682 5.148825 0.643256
v -0.668795 5.148825 0.735666
v -0.481202 5.148825 0.792572
v -0.261845 -0.652010 -1.026210
v -0.261845 4.451332 -1.026210
v -0.104536 -0.652010 -1.010717
v -0.104536 4.451332 -1.010717
v 0.046727 -0.652009 -0.964831
v 0.046727 4.451333 -0.964832
v 0.186132 -0.652009 -0.890318
v 0.186132 4.451333 -0.890318
v 0.308321 -0.652009 -0.790040
v 0.308321 4.451333 -0.790040
v 0.408600 -0.652009 -0.667850
v 0.408600 4.451333 -0.667850
v 0.483113 -0.652009 -0.528445
v 0.483113 4.451333 -0.528445
v 0.528998 -0.652009 -0.377182
v 0.528998 4.451333 -0.377182
v 0.544492 -0.652009 -0.219873
v 0.544492 4.451332 -0.219873
v 0.528999 -0.652009 -0.062565
v 0.528999 4.451332 -0.062565
v 0.483113 -0.652009 0.088698
v 0.483113 4.451332 0.088698
v 0.408600 -0.652009 0.228103
v 0.408600 4.451332 0.228103
v 0.308321 -0.652009 0.350293
v 0.308321 4.451332 0.350293
v 0.186132 -0.652009 0.450571
v 0.186132 4.451332 0.450571
v 0.046727 -0.652009 0.525085
v 0.046727 4.451332 0.525085
v -0.104536 -0.652009 0.570970
v -0.104536 4.451333 0.570970
v -0.261845 -0.652009 0.586464
v -0.261845 4.451333 0.586463
v -0.419154 -0.652009 0.570970
v -0.419154 4.451333 0.570970
v -0.570417 -0.652009 0.525085
v -0.570417 4.451332 0.525085
v -0.709822 -0.652009 0.450571
v -0.709822 4.451332 0.450571
v -0.832011 -0.652009 0.350293
v -0.832011 4.451332 0.350293
v -0.932290 -0.652009 0.228103
v -0.932290 4.451332 0.228103
v -1.006803 -0.652009 0.088698
v -1.006803 4.451332 0.088698
v -1.052688 -0.652009 -0.062566
v -1.052688 4.451332 -0.062566
v -1.068182 -0.652009 -0.219874
v -1.068182 4.451332 -0.219874
v -1.052688 -0.652009 -0.377183
v -1.052688 4.451333 -0.377183
v -1.006803 -0.652009 -0.528446
v -1.006803 4.451333 -0.528446
v -0.932289 -0.652009 -0.667851
v -0.932289 4.451333 -0.667851
v -0.832010 -0.652009 -0.790040
v -0.832010 4.451333 -0.790040
v -0.709821 -0.652009 -0.890319
v -0.709821 4.451333 -0.890319
v -0.570415 -0.652009 -0.964832
v -0.570415 4.451333 -0.964832
v -0.419152 -0.652010 -1.010717
v -0.419152 4.451332 -1.010717
vn -0.259900 -0.445500 0.856700
vn 0.087800 -0.445500 0.891000
vn -0.422000 -0.445500 0.789600
vn -0.568000 -0.445500 0.692100
vn -0.692100 -0.445500 0.568000
vn -0.789600 -0.445500 0.422000
vn -0.856700 -0.445500 0.259900
vn -0.891000 -0.445500 0.087800
vn -0.891000 -0.445500 -0.087800
vn -0.856700 -0.445500 -0.259900
vn -0.789600 -0.445500 -0.422000
vn -0.692100 -0.445500 -0.568000
vn -0.568000 -0.445500 -0.692100
vn -0.422000 -0.445500 -0.789600
vn -0.259900 -0.445500 -0.856700
vn -0.087800 -0.445500 -0.891000
vn 0.087800 -0.445500 -0.891000
vn 0.259900 -0.445500 -0.856700
vn 0.422000 -0.445500 -0.789600
vn 0.568000 -0.445500 -0.692100
vn 0.692100 -0.445500 -0.568000
vn 0.789600 -0.445500 -0.422000
vn 0.856700 -0.445500 -0.259900
vn 0.891000 -0.445500 -0.087800
vn 0.891000 -0.445500 0.087800
vn 0.856700 -0.445500 0.259900
vn 0.789600 -0.445500 0.422000
vn 0.692100 -0.445500 0.568000
vn 0.568000 -0.445500 0.692100
vn 0.422000 -0.445500 0.789600
vn -0.087800 -0.445500 0.891000
vn 0.259900 -0.445500 0.856700
vn 0.000000 1.000000 0.000000
vn 0.098000 0.000000 -0.995200
vn 0.290300 -0.000000 -0.956900
vn 0.471400 -0.000000 -0.881900
vn 0.634400 -0.000000 -0.773000
vn 0.773000 0.000000 -0.634400
vn 0.881900 0.000000 -0.471400
vn 0.956900 0.000000 -0.290300
vn 0.995200 0.000000 -0.098000
vn 0.995200 0.000000 0.098000
vn 0.956900 0.000000 0.290300
vn 0.881900 0.000000 0.471400
vn 0.773000 0.000000 0.634400
vn 0.634400 0.000000 0.773000
vn 0.471400 0.000000 0.881900
vn 0.290300 0.000000 0.956900
vn 0.098000 0.000000 0.995200
vn -0.098000 0.000000 0.995200
vn -0.290300 0.000000 0.956900
vn -0.471400 0.000000 0.881900
vn -0.634400 0.000000 0.773000
vn -0.773000 0.000000 0.634400
vn -0.881900 0.000000 0.471400
vn -0.956900 0.000000 0.290300
vn -0.995200 0.000000 0.098000
vn -0.995200 0.000000 -0.098000
vn -0.956900 0.000000 -0.290300
vn -0.881900 0.000000 -0.471400
vn -0.773000 -0.000000 -0.634400
vn -0.634400 -0.000000 -0.773000
vn -0.471400 -0.000000 -0.881900
vn -0.098000 -0.000000 -0.995200
vn -0.290300 -0.000000 -0.956900
vn 0.000000 -1.000000 -0.000000
usemtl None
s off
f 32//1 2//1 33//1
f 1//2 2//2 3//2
f 31//3 2//3 32//3
f 30//4 2//4 31//4
f 29//5 2//5 30//5
f 28//6 2//6 29//6
f 27//7 2//7 28//7
f 26//8 2//8 27//8
f 25//9 2//9 26//9
f 24//10 2//10 25//10
f 23//11 2//11 24//11
f 22//12 2//12 23//12
f 21//13 2//13 22//13
f 20//14 2//14 21//14
f 19//15 2//15 20//15
f 18//16 2//16 19//16
f 17//17 2//17 18//17
f 16//18 2//18 17//18
f 15//19 2//19 16//19
f 14//20 2//20 15//20
f 13//21 2//21 14//21
f 12//22 2//22 13//22
f 11//23 2//23 12//23
f 10//24 2//24 11//24
f 9//25 2//25 10//25
f 8//26 2//26 9//26
f 7//27 2//27 8//27
f 6//28 2//28 7//28
f 5//29 2//29 6//29
f 4//30 2//30 5//30
f 33//31 2//31 1//31
f 3//32 2//32 4//32
f 1//33 10//33 12//33
f 35//34 37//34 36//34
f 37//35 39//35 38//35
f 39//36 41//36 40//36
f 41//37 43//37 42//37
f 43//38 45//38 44//38
f 45//39 47//39 46//39
f 47//40 49//40 48//40
f 49//41 51//41 50//41
f 51//42 53//42 52//42
f 53//43 55//43 54//43
f 55//44 57//44 56//44
f 57//45 59//45 58//45
f 59//46 61//46 60//46
f 61//47 63//47 62//47
f 63//48 65//48 64//48
f 65//49 67//49 66//49
f 67//50 69//50 68//50
f 69//51 71//51 70//51
f 71//52 73//52 72//52
f 73//53 75//53 74//53
f 75//54 77//54 76//54
f 77//55 79//55 78//55
f 79//56 81//56 80//56
f 81//57 83//57 82//57
f 83//58 85//58 84//58
f 85//59 87//59 86//59
f 87//60 89//60 88//60
f 89//61 91//61 90//61
f 91//62 93//62 92//62
f 93//63 95//63 94//63
f 37//33 87//33 83//33
f 97//64 35//64 34//64
f 94//65 95//65 97//65
f 68//66 50//66 66//66
f 30//33 33//33 1//33
f 30//33 31//33 32//33
f 28//33 29//33 30//33
f 26//33 27//33 28//33
f 20//33 25//33 26//33
f 25//33 23//33 24//33
f 23//33 21//33 22//33
f 18//33 19//33 20//33
f 16//33 17//33 18//33
f 18//33 15//33 16//33
f 12//33 13//33 14//33
f 10//33 11//33 12//33
f 8//33 9//33 10//33
f 6//33 7//33 8//33
f 1//33 5//33 6//33
f 1//33 3//33 4//33
f 30//33 32//33 33//33
f 26//33 28//33 30//33
f 21//33 23//33 25//33
f 25//33 20//33 21//33
f 1//33 15//33 18//33
f 15//33 1//33 12//33
f 6//33 8//33 10//33
f 1//33 4//33 5//33
f 26//33 30//33 1//33
f 18//33 20//33 26//33
f 15//33 12//33 14//33
f 1//33 6//33 10//33
f 18//33 26//33 1//33
f 34//34 35//34 36//34
f 36//35 37//35 38//35
f 38//36 39//36 40//36
f 40//37 41//37 42//37
f 42//38 43//38 44//38
f 44//39 45//39 46//39
f 46//40 47//40 48//40
f 48//41 49//41 50//41
f 50//42 51//42 52//42
f 52//43 53//43 54//43
f 54//44 55//44 56//44
f 56//45 57//45 58//45
f 58//46 59//46 60//46
f 60//47 61//47 62//47
f 62//48 63//48 64//48
f 64//49 65//49 66//49
f 66//50 67//50 68//50
f 68//51 69//51 70//51
f 70//52 71//52 72//52
f 72//53 73//53 74//53
f 74//54 75//54 76//54
f 76//55 77//55 78//55
f 78//56 79//56 80//56
f 80//57 81//57 82//57
f 82//58 83//58 84//58
f 84//59 85//59 86//59
f 86//60 87//60 88//60
f 88//61 89//61 90//61
f 90//62 91//62 92//62
f 92//63 93//63 94//63
f 41//33 39//33 37//33
f 37//33 43//33 41//33
f 37//33 47//33 45//33
f 55//33 51//33 49//33
f 51//33 55//33 53//33
f 55//33 59//33 57//33
f 65//33 63//33 61//33
f 69//33 67//33 65//33
f 81//33 71//33 69//33
f 77//33 75//33 73//33
f 71//33 79//33 77//33
f 69//33 83//33 81//33
f 83//33 87//33 85//33
f 93//33 91//33 89//33
f 97//33 95//33 93//33
f 37//33 35//33 97//33
f 45//33 43//33 37//33
f 37//33 83//33 47//33
f 49//33 59//33 55//33
f 59//33 65//33 61//33
f 77//33 73//33 71//33
f 71//33 81//33 79//33
f 93//33 89//33 87//33
f 87//33 97//33 93//33
f 83//33 69//33 47//33
f 49//33 69//33 59//33
f 49//33 47//33 69//33
f 37//33 97//33 87//33
f 69//33 65//33 59//33
f 96//64 97//64 34//64
f 96//65 94//65 97//65
f 94//66 96//66 34//66
f 34//66 92//66 94//66
f 86//66 88//66 90//66
f 82//66 84//66 86//66
f 92//66 80//66 82//66
f 68//66 76//66 78//66
f 76//66 72//66 74//66
f 76//66 68//66 70//66
f 58//66 64//66 66//66
f 64//66 60//66 62//66
f 54//66 56//66 58//66
f 50//66 52//66 54//66
f 46//66 48//66 50//66
f 42//66 44//66 46//66
f 38//66 40//66 42//66
f 34//66 36//66 38//66
f 78//66 92//66 34//66
f 92//66 86//66 90//66
f 92//66 78//66 80//66
f 76//66 70//66 72//66
f 58//66 60//66 64//66
f 66//66 54//66 58//66
f 68//66 46//66 50//66
f 46//66 38//66 42//66
f 82//66 86//66 92//66
f 34//66 68//66 78//66
f 50//66 54//66 66//66
f 68//66 38//66 46//66
f 38//66 68//66 34//66
